<?xml version="1.0" standalone="no"?>
<!DOCTYPE svg PUBLIC "-//W3C//DTD SVG 20010904//EN"
 "http://www.w3.org/TR/2001/REC-SVG-20010904/DTD/svg10.dtd">
<svg version="1.0" xmlns="http://www.w3.org/2000/svg"
 width="70.000000pt" height="70.000000pt" viewBox="0 0 70.000000 70.000000"
 preserveAspectRatio="xMidYMid meet">
<metadata>
Created by potrace 1.14, written by Peter Selinger 2001-2017
</metadata>
<g transform="translate(0.000000,70.000000) scale(0.100000,-0.100000)"
fill="#000000" stroke="none">
<path d="M50 355 c0 -170 4 -265 10 -265 6 0 13 0 16 1 4 0 11 -5 15 -13 7
-10 9 -10 9 2 0 13 1 13 10 0 9 -13 11 -13 20 0 9 13 11 13 19 0 14 -21 22 4
18 58 -2 25 1 42 7 42 6 0 4 5 -4 10 -13 9 -13 10 0 10 9 0 11 3 5 8 -13 9
-16 42 -4 42 5 0 9 5 9 11 0 5 -5 7 -12 3 -6 -4 -8 -3 -5 2 7 11 57 12 74 1 6
-4 14 -4 17 1 6 11 178 8 196 -3 8 -5 11 -4 7 1 -3 6 19 9 56 9 68 -2 90 3 81
16 -3 5 2 6 11 3 11 -5 18 0 22 15 3 11 9 21 14 21 5 0 9 16 9 35 0 21 5 35
13 36 6 0 4 4 -7 8 -17 7 -17 8 -2 23 15 15 15 17 -1 20 -15 3 -15 4 1 21 12
12 14 17 4 17 -8 0 -13 12 -12 32 1 34 -10 50 -58 81 -24 15 -57 17 -283 17
l-255 0 0 -265z m219 141 c7 -5 17 -4 23 2 7 7 19 7 33 2 14 -5 27 -4 34 3 7
7 11 7 11 1 0 -12 49 -12 68 0 7 4 12 3 12 -2 0 -5 7 -9 15 -9 8 0 15 5 15 11
0 6 5 4 10 -4 5 -8 10 -11 10 -7 0 4 8 3 18 -2 22 -12 22 -78 1 -92 -8 -5 -89
-8 -181 -7 -131 1 -168 4 -172 14 -3 8 -1 14 5 14 7 0 7 6 0 17 -6 12 -5 26 4
43 11 21 20 26 47 25 19 -1 40 -5 47 -9z"/>
</g>
</svg>
